<svg xmlns="http://www.w3.org/2000/svg" width="1100" height="680">
<rect width="100%" height="100%" fill="white"/>
<text x="550" y="30" text-anchor="middle" font-family="sans-serif" font-size="20">EffDim GPU suite memory profile (GMST excluded)</text>
<line x1="85.0" y1="55" x2="85.0" y2="560" stroke="#e5e7eb"/>
<text x="85.0" y="582" text-anchor="middle" font-family="sans-serif" font-size="12">0</text>
<line x1="85" y1="560.0" x2="1065" y2="560.0" stroke="#e5e7eb"/>
<text x="75" y="564.0" text-anchor="end" font-family="sans-serif" font-size="12">0.0</text>
<line x1="281.0" y1="55" x2="281.0" y2="560" stroke="#e5e7eb"/>
<text x="281.0" y="582" text-anchor="middle" font-family="sans-serif" font-size="12">6</text>
<line x1="85" y1="459.0" x2="1065" y2="459.0" stroke="#e5e7eb"/>
<text x="75" y="463.0" text-anchor="end" font-family="sans-serif" font-size="12">2.2</text>
<line x1="477.0" y1="55" x2="477.0" y2="560" stroke="#e5e7eb"/>
<text x="477.0" y="582" text-anchor="middle" font-family="sans-serif" font-size="12">11</text>
<line x1="85" y1="358.0" x2="1065" y2="358.0" stroke="#e5e7eb"/>
<text x="75" y="362.0" text-anchor="end" font-family="sans-serif" font-size="12">4.3</text>
<line x1="673.0" y1="55" x2="673.0" y2="560" stroke="#e5e7eb"/>
<text x="673.0" y="582" text-anchor="middle" font-family="sans-serif" font-size="12">17</text>
<line x1="85" y1="257.0" x2="1065" y2="257.0" stroke="#e5e7eb"/>
<text x="75" y="261.0" text-anchor="end" font-family="sans-serif" font-size="12">6.5</text>
<line x1="869.0" y1="55" x2="869.0" y2="560" stroke="#e5e7eb"/>
<text x="869.0" y="582" text-anchor="middle" font-family="sans-serif" font-size="12">23</text>
<line x1="85" y1="156.0" x2="1065" y2="156.0" stroke="#e5e7eb"/>
<text x="75" y="160.0" text-anchor="end" font-family="sans-serif" font-size="12">8.6</text>
<line x1="1065.0" y1="55" x2="1065.0" y2="560" stroke="#e5e7eb"/>
<text x="1065.0" y="582" text-anchor="middle" font-family="sans-serif" font-size="12">29</text>
<line x1="85" y1="55.0" x2="1065" y2="55.0" stroke="#e5e7eb"/>
<text x="75" y="59.0" text-anchor="end" font-family="sans-serif" font-size="12">10.8</text>
<line x1="85" y1="560" x2="1065" y2="560" stroke="black"/>
<line x1="85" y1="55" x2="85" y2="560" stroke="black"/>
<text x="575.0" y="598" text-anchor="middle" font-family="sans-serif" font-size="14">Elapsed time per sequential run (s)</text>
<text x="20" y="307.5" text-anchor="middle" transform="rotate(-90 20 307.5)" font-family="sans-serif" font-size="14">Memory (GiB)</text>
<polyline points="85.8,560.0 95.1,545.3 104.4,536.5 113.7,522.8 123.2,518.4 132.4,527.8 141.7,527.8 150.9,527.8" fill="none" stroke="#2563eb" stroke-opacity="1.0" stroke-width="2" stroke-dasharray=""/>
<polyline points="85.8,535.8 95.1,535.8 104.4,508.9 113.7,508.7 123.2,508.7 132.4,508.7 141.7,508.7 150.9,508.7" fill="none" stroke="#2563eb" stroke-opacity="0.45" stroke-width="2" stroke-dasharray=""/>
<polyline points="85.7,560.0 94.9,545.3 104.2,535.8 113.5,525.6 122.8,524.5 132.0,514.7 141.3,500.5 150.6,495.7 159.9,505.1 169.1,505.1 178.4,505.1" fill="none" stroke="#dc2626" stroke-opacity="1.0" stroke-width="2" stroke-dasharray=""/>
<polyline points="85.7,535.8 94.9,535.8 104.2,501.3 113.5,498.5 122.8,479.6 132.0,501.1 141.3,502.5 150.6,502.5 159.9,502.5 169.1,502.5 178.4,502.5" fill="none" stroke="#dc2626" stroke-opacity="0.45" stroke-width="2" stroke-dasharray=""/>
<polyline points="85.7,560.0 94.9,545.3 104.2,535.7 113.5,519.6 123.0,510.1 132.4,507.9 141.6,517.3 150.9,517.3 160.1,517.3" fill="none" stroke="#16a34a" stroke-opacity="1.0" stroke-width="2" stroke-dasharray=""/>
<polyline points="85.7,535.8 94.9,535.8 104.2,499.2 113.5,501.0 123.0,501.0 132.4,501.0 141.6,501.0 150.9,501.0 160.1,501.0" fill="none" stroke="#16a34a" stroke-opacity="0.45" stroke-width="2" stroke-dasharray=""/>
<polyline points="85.7,560.0 94.9,545.3 104.2,534.7 113.5,519.8 122.8,512.9 132.1,510.3 141.3,486.1 150.6,473.1 160.6,450.4 170.0,439.0 179.4,430.1 188.6,436.4 197.9,477.0 207.1,477.0 216.4,477.0 225.6,477.0 234.9,477.0 244.1,477.0 253.4,477.0 262.6,477.0 271.9,477.0 281.1,477.0 290.4,477.0 299.6,477.0" fill="none" stroke="#2563eb" stroke-opacity="1.0" stroke-width="2" stroke-dasharray="8 4"/>
<polyline points="85.7,535.8 94.9,535.8 104.2,535.8 113.5,503.5 122.8,502.9 132.1,502.9 141.3,502.9 150.6,502.9 160.6,502.9 170.0,502.9 179.4,502.9 188.6,502.9 197.9,502.9 207.1,502.9 216.4,502.9 225.6,502.9 234.9,502.9 244.1,502.9 253.4,502.9 262.6,502.9 271.9,502.9 281.1,502.9 290.4,502.9 299.6,502.9" fill="none" stroke="#2563eb" stroke-opacity="0.45" stroke-width="2" stroke-dasharray="8 4"/>
<polyline points="85.7,560.0 94.9,545.3 104.2,534.7 113.5,519.7 122.8,506.8 132.0,504.9 141.3,496.6 150.6,494.0 159.9,494.0 169.2,494.0 178.5,494.0 187.8,494.0 197.1,494.0 206.3,494.0 215.6,494.0 224.9,494.0 234.2,485.1 243.5,464.2 252.8,448.9 262.2,425.5 271.6,420.1 280.9,411.3 290.2,445.0 299.4,457.7 308.7,457.7 318.0,457.7 327.2,457.7 336.5,457.7 345.7,457.7 354.9,457.7 364.2,457.7 373.4,457.7 382.6,457.7 391.9,457.7 401.1,457.7" fill="none" stroke="#dc2626" stroke-opacity="1.0" stroke-width="2" stroke-dasharray="8 4"/>
<polyline points="85.7,535.8 94.9,535.8 104.2,535.8 113.5,503.5 122.8,487.7 132.0,487.7 141.3,453.3 150.6,325.3 159.9,325.3 169.2,325.3 178.5,325.3 187.8,325.3 197.1,325.3 206.3,325.3 215.6,325.3 224.9,325.3 234.2,496.3 243.5,496.3 252.8,496.3 262.2,496.3 271.6,496.3 280.9,496.3 290.2,496.3 299.4,496.3 308.7,496.3 318.0,496.3 327.2,496.3 336.5,496.3 345.7,496.3 354.9,496.3 364.2,496.3 373.4,496.3 382.6,496.3 391.9,496.3 401.1,496.3" fill="none" stroke="#dc2626" stroke-opacity="0.45" stroke-width="2" stroke-dasharray="8 4"/>
<polyline points="85.7,560.0 94.9,545.3 104.2,534.7 113.5,519.7 122.8,507.0 132.1,505.2 141.3,505.2 150.6,505.2 159.9,505.2 169.2,500.0 178.5,476.1 187.7,463.3 197.2,443.8 206.6,428.8 215.9,426.6 225.3,426.2 234.6,473.0 243.8,473.0 253.1,473.0 262.3,473.0 271.6,473.0 280.8,473.0 290.0,473.0 299.3,473.0 308.5,473.0 317.8,473.0 327.0,473.0 336.3,473.0 345.5,493.5" fill="none" stroke="#16a34a" stroke-opacity="1.0" stroke-width="2" stroke-dasharray="8 4"/>
<polyline points="85.7,535.8 94.9,535.8 104.2,535.8 113.5,503.5 122.8,490.9 132.1,481.3 141.3,481.3 150.6,481.3 159.9,484.5 169.2,486.4 178.5,486.4 187.7,486.4 197.2,486.4 206.6,486.4 215.9,486.4 225.3,486.4 234.6,486.4 243.8,486.4 253.1,486.4 262.3,486.4 271.6,486.4 280.8,486.4 290.0,486.4 299.3,486.4 308.5,486.4 317.8,486.4 327.0,486.4 336.3,486.4 345.5,497.6" fill="none" stroke="#16a34a" stroke-opacity="0.45" stroke-width="2" stroke-dasharray="8 4"/>
<polyline points="85.7,560.0 94.9,545.3 104.2,534.7 113.5,524.1 123.1,503.0 132.4,483.4 141.7,487.9 150.9,487.9 160.2,487.9 169.5,487.9 178.7,487.9 188.0,480.7 197.3,456.5 206.6,432.7 215.9,424.0 225.1,411.1 234.4,389.3 244.0,371.5 253.7,353.8 263.0,340.7 272.3,327.6 281.7,318.8 291.1,315.1 300.5,314.0 309.8,412.7 319.0,408.1 328.3,408.1 337.5,408.1 346.8,408.1 356.1,408.1 365.3,408.1 374.5,408.1 383.8,408.1 393.0,408.1 402.3,408.1 411.6,408.1 420.8,408.1 430.1,408.1 439.3,408.1 448.6,408.1 457.8,408.1 467.1,408.1 476.3,408.1 485.6,408.1 494.8,408.1 504.1,408.1 513.3,408.1 522.6,408.1 531.9,408.1" fill="none" stroke="#2563eb" stroke-opacity="1.0" stroke-width="2" stroke-dasharray="2 3"/>
<polyline points="85.7,535.8 94.9,535.8 104.2,535.8 113.5,535.8 123.1,534.8 132.4,496.9 141.7,495.9 150.9,495.9 160.2,495.9 169.5,495.9 178.7,495.9 188.0,495.9 197.3,495.9 206.6,495.9 215.9,495.9 225.1,495.9 234.4,495.9 244.0,495.9 253.7,495.9 263.0,495.9 272.3,495.9 281.7,495.9 291.1,495.9 300.5,495.9 309.8,495.9 319.0,495.9 328.3,495.9 337.5,495.9 346.8,495.9 356.1,495.9 365.3,495.9 374.5,495.9 383.8,495.9 393.0,495.9 402.3,495.9 411.6,495.9 420.8,495.9 430.1,495.9 439.3,495.9 448.6,495.9 457.8,495.9 467.1,495.9 476.3,495.9 485.6,495.9 494.8,495.9 504.1,495.9 513.3,495.9 522.6,495.9 531.9,495.9" fill="none" stroke="#2563eb" stroke-opacity="0.45" stroke-width="2" stroke-dasharray="2 3"/>
<polyline points="85.7,560.0 94.9,545.3 104.2,534.7 113.4,524.0 123.4,502.9 132.6,482.6 141.9,479.8 151.1,479.8 160.4,470.4 169.7,468.8 179.0,468.9 188.4,468.9 197.7,468.9 207.1,468.9 216.4,468.9 225.8,468.9 235.1,468.9 244.4,468.9 253.8,468.9 263.1,468.9 272.5,468.9 281.8,468.9 291.1,468.9 300.5,468.9 309.8,468.9 319.1,468.9 328.5,468.9 337.8,468.9 347.1,468.9 356.5,468.9 365.9,468.9 375.2,468.9 384.5,468.9 393.9,468.9 403.2,468.9 412.6,468.9 421.9,468.9 431.3,468.9 440.6,468.9 449.9,468.9 459.3,468.9 468.6,468.9 477.9,468.9 487.3,468.9 496.6,468.9 505.9,468.9 515.2,468.9 524.6,468.9 533.9,468.9 543.2,468.9 552.6,468.9 561.9,468.9 571.2,468.9 580.6,468.9 589.9,468.9 599.2,468.9 608.6,468.9 617.9,468.9 627.2,468.9 636.6,468.9 645.9,468.9 655.2,468.9 664.5,468.9 673.9,468.9 683.2,468.9 692.6,468.9 701.9,468.9 711.3,468.9 720.6,458.8 729.8,434.6 739.1,411.7 748.4,402.5 757.7,389.7 766.9,367.4 776.4,350.6 786.3,332.4 795.6,319.3 805.0,314.9 815.2,310.5 824.5,306.1 833.7,305.5 843.0,403.1 852.3,399.1 861.5,399.1 870.8,399.1 880.0,399.1 889.2,399.1 898.5,399.1 907.7,399.1 917.0,399.1 926.2,399.1 935.5,399.1 944.7,399.1 954.0,399.1 963.2,399.1 972.5,399.1 981.7,399.1 991.0,399.1 1000.2,399.1 1009.5,399.1 1018.7,399.1 1028.0,399.1 1037.2,399.1 1046.5,399.1 1055.7,399.1 1065.0,399.1" fill="none" stroke="#dc2626" stroke-opacity="1.0" stroke-width="2" stroke-dasharray="2 3"/>
<polyline points="85.7,535.8 94.9,535.8 104.2,535.8 113.4,535.8 123.4,534.8 132.6,496.9 141.9,474.3 151.1,474.3 160.4,436.0 169.7,56.5 179.0,55.0 188.4,55.0 197.7,55.0 207.1,55.0 216.4,55.0 225.8,55.0 235.1,55.0 244.4,55.0 253.8,55.0 263.1,55.0 272.5,55.0 281.8,55.0 291.1,55.0 300.5,55.0 309.8,55.0 319.1,55.0 328.5,55.0 337.8,55.0 347.1,55.0 356.5,55.0 365.9,55.0 375.2,55.0 384.5,55.0 393.9,55.0 403.2,55.0 412.6,55.0 421.9,55.0 431.3,55.0 440.6,55.0 449.9,55.0 459.3,55.0 468.6,55.0 477.9,55.0 487.3,55.0 496.6,55.0 505.9,55.0 515.2,55.0 524.6,55.0 533.9,55.0 543.2,55.0 552.6,55.0 561.9,55.0 571.2,55.0 580.6,55.0 589.9,55.0 599.2,55.0 608.6,55.0 617.9,55.0 627.2,55.0 636.6,55.0 645.9,55.0 655.2,55.0 664.5,55.0 673.9,55.0 683.2,55.0 692.6,55.0 701.9,55.0 711.3,55.0 720.6,488.9 729.8,488.9 739.1,488.9 748.4,488.9 757.7,488.9 766.9,488.9 776.4,488.9 786.3,488.9 795.6,488.9 805.0,488.9 815.2,488.9 824.5,488.9 833.7,488.9 843.0,488.9 852.3,488.9 861.5,488.9 870.8,488.9 880.0,488.9 889.2,488.9 898.5,488.9 907.7,488.9 917.0,488.9 926.2,488.9 935.5,488.9 944.7,488.9 954.0,488.9 963.2,488.9 972.5,488.9 981.7,488.9 991.0,488.9 1000.2,488.9 1009.5,488.9 1018.7,488.9 1028.0,488.9 1037.2,488.9 1046.5,488.9 1055.7,488.9 1065.0,488.9" fill="none" stroke="#dc2626" stroke-opacity="0.45" stroke-width="2" stroke-dasharray="2 3"/>
<polyline points="85.7,560.0 94.9,545.3 104.2,534.7 113.5,524.1 123.3,502.9 132.6,482.8 141.9,481.8 151.2,480.0 160.6,480.0 169.9,480.0 179.2,480.0 188.6,480.0 197.9,480.0 207.3,480.0 216.6,480.0 226.0,480.0 235.3,480.0 244.7,480.0 254.0,480.0 263.3,480.0 272.7,480.0 282.0,480.0 291.4,480.0 300.7,480.0 310.1,480.0 319.4,480.0 328.8,480.0 338.1,480.0 347.4,480.0 356.7,480.0 366.1,480.0 375.4,480.0 384.8,480.0 394.1,480.0 403.5,480.0 412.8,480.0 422.1,480.0 431.5,480.0 440.8,480.0 450.2,480.0 459.4,479.0 468.7,458.1 478.0,433.9 487.3,419.8 496.6,407.0 505.8,392.4 515.1,365.3 524.5,343.6 534.4,334.7 543.8,330.3 553.2,321.5 562.6,317.1 572.0,312.7 581.2,400.0 590.5,405.8 599.8,405.8 609.0,405.8 618.2,405.8 627.5,405.8 636.7,405.8 646.0,405.8 655.2,405.8 664.5,405.8 673.7,405.8 682.9,405.8 692.2,405.8 701.4,405.8 710.7,405.8 719.9,405.8 729.1,405.8 738.4,405.8 747.6,405.8 756.9,405.8 766.1,405.8 775.4,405.8 784.6,405.8 793.9,405.8 803.1,405.8 812.4,405.8" fill="none" stroke="#16a34a" stroke-opacity="1.0" stroke-width="2" stroke-dasharray="2 3"/>
<polyline points="85.7,535.8 94.9,535.8 104.2,535.8 113.5,535.8 123.3,534.8 132.6,496.9 141.9,477.6 151.2,456.1 160.6,456.1 169.9,456.1 179.2,456.1 188.6,456.1 197.9,456.1 207.3,456.1 216.6,456.1 226.0,456.1 235.3,456.1 244.7,456.1 254.0,456.1 263.3,456.1 272.7,456.1 282.0,456.1 291.4,456.1 300.7,456.1 310.1,456.1 319.4,456.1 328.8,456.1 338.1,456.1 347.4,456.1 356.7,456.1 366.1,456.1 375.4,456.1 384.8,456.1 394.1,456.1 403.5,457.7 412.8,457.7 422.1,457.7 431.5,457.7 440.8,457.7 450.2,457.7 459.4,461.5 468.7,461.4 478.0,461.4 487.3,461.4 496.6,461.4 505.8,461.4 515.1,461.4 524.5,461.4 534.4,461.4 543.8,461.4 553.2,461.4 562.6,461.4 572.0,461.4 581.2,461.4 590.5,461.4 599.8,461.4 609.0,461.4 618.2,461.4 627.5,461.4 636.7,461.4 646.0,461.4 655.2,461.4 664.5,461.4 673.7,461.4 682.9,461.4 692.2,461.4 701.4,461.4 710.7,461.4 719.9,461.4 729.1,461.4 738.4,461.4 747.6,461.4 756.9,461.4 766.1,461.4 775.4,461.4 784.6,461.4 793.9,461.4 803.1,461.4 812.4,461.4" fill="none" stroke="#16a34a" stroke-opacity="0.45" stroke-width="2" stroke-dasharray="2 3"/>
<line x1="85" y1="630" x2="113" y2="630" stroke="#2563eb" stroke-width="3"/>
<text x="121" y="634" font-family="sans-serif" font-size="13">exact</text>
<line x1="275" y1="630" x2="303" y2="630" stroke="#dc2626" stroke-width="3"/>
<text x="311" y="634" font-family="sans-serif" font-size="13">cagra</text>
<line x1="465" y1="630" x2="493" y2="630" stroke="#16a34a" stroke-width="3"/>
<text x="501" y="634" font-family="sans-serif" font-size="13">ivf_flat</text>
<text x="685" y="634" font-family="sans-serif" font-size="13">Solid/dashed/dotted: 10k/50k/100k · opaque: RSS · faint: VRAM</text>
</svg>