<svg xmlns="http://www.w3.org/2000/svg" width="1000" height="500">
<rect width="100%" height="100%" fill="white"/>
<text x="500" y="28" text-anchor="middle" font-family="sans-serif" font-size="20">Regular vs streaming PCA on UniverseTBD embeddings</text>
<line x1="80" y1="472.1" x2="970" y2="472.1" stroke="#e5e7eb"/>
<text x="70" y="476.1" text-anchor="end" font-family="sans-serif" font-size="12">0.01s</text>
<line x1="80" y1="354.3" x2="970" y2="354.3" stroke="#e5e7eb"/>
<text x="70" y="358.3" text-anchor="end" font-family="sans-serif" font-size="12">0.1s</text>
<line x1="80" y1="236.5" x2="970" y2="236.5" stroke="#e5e7eb"/>
<text x="70" y="240.5" text-anchor="end" font-family="sans-serif" font-size="12">1s</text>
<line x1="80" y1="118.7" x2="970" y2="118.7" stroke="#e5e7eb"/>
<text x="70" y="122.7" text-anchor="end" font-family="sans-serif" font-size="12">10s</text>
<line x1="80" y1="0.9" x2="970" y2="0.9" stroke="#e5e7eb"/>
<text x="70" y="4.9" text-anchor="end" font-family="sans-serif" font-size="12">100s</text>
<rect x="154.2" y="206.0" width="46.4" height="194.0" fill="#2563eb"/>
<rect x="203.6" y="379.3" width="46.4" height="20.7" fill="#60a5fa"/>
<rect x="253.1" y="325.6" width="46.4" height="74.4" fill="#dc2626"/>
<rect x="302.5" y="313.9" width="46.4" height="86.1" fill="#f87171"/>
<text x="228.3" y="424" text-anchor="middle" font-family="sans-serif" font-size="12">jwst</text>
<rect x="450.8" y="279.0" width="46.4" height="121.0" fill="#2563eb"/>
<rect x="500.3" y="351.5" width="46.4" height="48.5" fill="#60a5fa"/>
<rect x="549.7" y="233.7" width="46.4" height="166.3" fill="#dc2626"/>
<rect x="599.2" y="263.2" width="46.4" height="136.8" fill="#f87171"/>
<text x="525.0" y="424" text-anchor="middle" font-family="sans-serif" font-size="12">desi</text>
<rect x="747.5" y="75.7" width="46.4" height="324.3" fill="#2563eb"/>
<rect x="796.9" y="240.1" width="46.4" height="159.9" fill="#60a5fa"/>
<rect x="846.4" y="153.0" width="46.4" height="247.0" fill="#dc2626"/>
<rect x="895.8" y="154.2" width="46.4" height="245.8" fill="#f87171"/>
<text x="821.7" y="424" text-anchor="middle" font-family="sans-serif" font-size="12">legacysurvey</text>
<rect x="80" y="458" width="16" height="12" fill="#2563eb"/>
<text x="102" y="468" font-family="sans-serif" font-size="12">Python regular</text>
<rect x="290" y="458" width="16" height="12" fill="#60a5fa"/>
<text x="312" y="468" font-family="sans-serif" font-size="12">Python streaming</text>
<rect x="500" y="458" width="16" height="12" fill="#dc2626"/>
<text x="522" y="468" font-family="sans-serif" font-size="12">Rust regular</text>
<rect x="710" y="458" width="16" height="12" fill="#f87171"/>
<text x="732" y="468" font-family="sans-serif" font-size="12">Rust streaming</text>
</svg>