<svg xmlns="http://www.w3.org/2000/svg" width="650" height="410" viewBox="0 0 1000 630">
<rect width="100%" height="100%" fill="white"/>
<text x="500.0" y="28" text-anchor="middle" font-family="sans-serif" font-size="22">Latent-dimension recovery degrades with ambient noise</text>
<text x="500.0" y="50" text-anchor="middle" font-family="sans-serif" font-size="13">Median absolute relative error across 14 manifolds; lower is better; logarithmic y-axis</text>
<line x1="80" y1="485.0" x2="975" y2="485.0" stroke="#e5e7eb"/>
<text x="72" y="489.0" text-anchor="end" font-family="sans-serif" font-size="11">1%</text>
<line x1="80" y1="448.6" x2="975" y2="448.6" stroke="#e5e7eb"/>
<text x="72" y="452.6" text-anchor="end" font-family="sans-serif" font-size="11">2%</text>
<line x1="80" y1="400.6" x2="975" y2="400.6" stroke="#e5e7eb"/>
<text x="72" y="404.6" text-anchor="end" font-family="sans-serif" font-size="11">5%</text>
<line x1="80" y1="364.2" x2="975" y2="364.2" stroke="#e5e7eb"/>
<text x="72" y="368.2" text-anchor="end" font-family="sans-serif" font-size="11">10%</text>
<line x1="80" y1="327.8" x2="975" y2="327.8" stroke="#e5e7eb"/>
<text x="72" y="331.8" text-anchor="end" font-family="sans-serif" font-size="11">20%</text>
<line x1="80" y1="279.8" x2="975" y2="279.8" stroke="#e5e7eb"/>
<text x="72" y="283.8" text-anchor="end" font-family="sans-serif" font-size="11">50%</text>
<line x1="80" y1="243.4" x2="975" y2="243.4" stroke="#e5e7eb"/>
<text x="72" y="247.4" text-anchor="end" font-family="sans-serif" font-size="11">100%</text>
<line x1="80" y1="207.1" x2="975" y2="207.1" stroke="#e5e7eb"/>
<text x="72" y="211.1" text-anchor="end" font-family="sans-serif" font-size="11">200%</text>
<line x1="80" y1="159.0" x2="975" y2="159.0" stroke="#e5e7eb"/>
<text x="72" y="163.0" text-anchor="end" font-family="sans-serif" font-size="11">500%</text>
<line x1="80" y1="122.6" x2="975" y2="122.6" stroke="#e5e7eb"/>
<text x="72" y="126.6" text-anchor="end" font-family="sans-serif" font-size="11">1000%</text>
<text x="80.0" y="505" text-anchor="middle" font-family="sans-serif" font-size="12">No noise</text>
<text x="378.3" y="505" text-anchor="middle" font-family="sans-serif" font-size="12">30 dB</text>
<text x="676.7" y="505" text-anchor="middle" font-family="sans-serif" font-size="12">20 dB</text>
<text x="975.0" y="505" text-anchor="middle" font-family="sans-serif" font-size="12">10 dB</text>
<polyline points="80.0,298.5 378.3,298.5 676.7,298.5 975.0,89.2" fill="none" stroke="#2563eb" stroke-width="2.5"/>
<circle cx="80.0" cy="298.5" r="4" fill="#2563eb"/>
<circle cx="378.3" cy="298.5" r="4" fill="#2563eb"/>
<circle cx="676.7" cy="298.5" r="4" fill="#2563eb"/>
<circle cx="975.0" cy="89.2" r="4" fill="#2563eb"/>
<line x1="80" y1="578" x2="100" y2="578" stroke="#2563eb" stroke-width="3"/>
<text x="107" y="582" font-family="sans-serif" font-size="12">PCA-95</text>
<polyline points="80.0,330.0 378.3,326.3 676.7,304.5 975.0,228.0" fill="none" stroke="#16a34a" stroke-width="2.5"/>
<circle cx="80.0" cy="330.0" r="4" fill="#16a34a"/>
<circle cx="378.3" cy="326.3" r="4" fill="#16a34a"/>
<circle cx="676.7" cy="304.5" r="4" fill="#16a34a"/>
<circle cx="975.0" cy="228.0" r="4" fill="#16a34a"/>
<line x1="295" y1="578" x2="315" y2="578" stroke="#16a34a" stroke-width="3"/>
<text x="322" y="582" font-family="sans-serif" font-size="12">Shannon</text>
<polyline points="80.0,343.1 378.3,342.4 676.7,335.6 975.0,293.4" fill="none" stroke="#ea580c" stroke-width="2.5"/>
<circle cx="80.0" cy="343.1" r="4" fill="#ea580c"/>
<circle cx="378.3" cy="342.4" r="4" fill="#ea580c"/>
<circle cx="676.7" cy="335.6" r="4" fill="#ea580c"/>
<circle cx="975.0" cy="293.4" r="4" fill="#ea580c"/>
<line x1="510" y1="578" x2="530" y2="578" stroke="#ea580c" stroke-width="3"/>
<text x="537" y="582" font-family="sans-serif" font-size="12">PR</text>
<polyline points="80.0,343.7 378.3,343.2 676.7,338.9 975.0,308.8" fill="none" stroke="#9333ea" stroke-width="2.5"/>
<circle cx="80.0" cy="343.7" r="4" fill="#9333ea"/>
<circle cx="378.3" cy="343.2" r="4" fill="#9333ea"/>
<circle cx="676.7" cy="338.9" r="4" fill="#9333ea"/>
<circle cx="975.0" cy="308.8" r="4" fill="#9333ea"/>
<line x1="725" y1="578" x2="745" y2="578" stroke="#9333ea" stroke-width="3"/>
<text x="752" y="582" font-family="sans-serif" font-size="12">Rényi-5</text>
<polyline points="80.0,355.6 378.3,310.5 676.7,290.5 975.0,209.4" fill="none" stroke="#0891b2" stroke-width="2.5"/>
<circle cx="80.0" cy="355.6" r="4" fill="#0891b2"/>
<circle cx="378.3" cy="310.5" r="4" fill="#0891b2"/>
<circle cx="676.7" cy="290.5" r="4" fill="#0891b2"/>
<circle cx="975.0" cy="209.4" r="4" fill="#0891b2"/>
<line x1="80" y1="599" x2="100" y2="599" stroke="#0891b2" stroke-width="3"/>
<text x="107" y="603" font-family="sans-serif" font-size="12">MLE</text>
<polyline points="80.0,356.5 378.3,353.7 676.7,286.6 975.0,180.8" fill="none" stroke="#dc2626" stroke-width="2.5"/>
<circle cx="80.0" cy="356.5" r="4" fill="#dc2626"/>
<circle cx="378.3" cy="353.7" r="4" fill="#dc2626"/>
<circle cx="676.7" cy="286.6" r="4" fill="#dc2626"/>
<circle cx="975.0" cy="180.8" r="4" fill="#dc2626"/>
<line x1="295" y1="599" x2="315" y2="599" stroke="#dc2626" stroke-width="3"/>
<text x="322" y="603" font-family="sans-serif" font-size="12">Two-NN</text>
<polyline points="80.0,381.0 378.3,289.3 676.7,282.7 975.0,274.1" fill="none" stroke="#65a30d" stroke-width="2.5"/>
<circle cx="80.0" cy="381.0" r="4" fill="#65a30d"/>
<circle cx="378.3" cy="289.3" r="4" fill="#65a30d"/>
<circle cx="676.7" cy="282.7" r="4" fill="#65a30d"/>
<circle cx="975.0" cy="274.1" r="4" fill="#65a30d"/>
<line x1="510" y1="599" x2="530" y2="599" stroke="#65a30d" stroke-width="3"/>
<text x="537" y="603" font-family="sans-serif" font-size="12">DANCo</text>
<polyline points="80.0,404.8 378.3,329.3 676.7,307.1 975.0,214.7" fill="none" stroke="#4b5563" stroke-width="2.5"/>
<circle cx="80.0" cy="404.8" r="4" fill="#4b5563"/>
<circle cx="378.3" cy="329.3" r="4" fill="#4b5563"/>
<circle cx="676.7" cy="307.1" r="4" fill="#4b5563"/>
<circle cx="975.0" cy="214.7" r="4" fill="#4b5563"/>
<line x1="725" y1="599" x2="745" y2="599" stroke="#4b5563" stroke-width="3"/>
<text x="752" y="603" font-family="sans-serif" font-size="12">MiND-k</text>
<polyline points="80.0,342.9 378.3,324.1 676.7,321.7 975.0,307.5" fill="none" stroke="#be123c" stroke-width="2.5"/>
<circle cx="80.0" cy="342.9" r="4" fill="#be123c"/>
<circle cx="378.3" cy="324.1" r="4" fill="#be123c"/>
<circle cx="676.7" cy="321.7" r="4" fill="#be123c"/>
<circle cx="975.0" cy="307.5" r="4" fill="#be123c"/>
<line x1="80" y1="620" x2="100" y2="620" stroke="#be123c" stroke-width="3"/>
<text x="107" y="624" font-family="sans-serif" font-size="12">Isomap</text>
<text x="22" y="275.0" transform="rotate(-90 22 275.0)" text-anchor="middle" font-family="sans-serif" font-size="14">Median absolute relative error</text>
</svg>